<svg xmlns="http://www.w3.org/2000/svg" xmlns:xlink="http://www.w3.org/1999/xlink" width="60" zoomAndPan="magnify" viewBox="0 0 45 44.999999" height="60" preserveAspectRatio="xMidYMid meet" version="1.0"><defs><g/><clipPath id="cb96548fd7"><path d="M 20.175781 20.175781 L 24.824219 20.175781 L 24.824219 24.824219 L 20.175781 24.824219 Z M 20.175781 20.175781 " clip-rule="nonzero"/></clipPath><clipPath id="cfb498ba75"><path d="M 22.5 20.175781 C 21.214844 20.175781 20.175781 21.214844 20.175781 22.5 C 20.175781 23.785156 21.214844 24.824219 22.5 24.824219 C 23.785156 24.824219 24.824219 23.785156 24.824219 22.5 C 24.824219 21.214844 23.785156 20.175781 22.5 20.175781 Z M 22.5 20.175781 " clip-rule="nonzero"/></clipPath></defs><g fill="#000000" fill-opacity="1"><g transform="translate(3.362751, 30.374998)"><g><path d="M 11.4375 0 L 11 -1.9375 C 10 -0.4375 8.554688 0.3125 6.671875 0.3125 C 4.828125 0.3125 3.40625 -0.285156 2.40625 -1.484375 C 1.414062 -2.691406 0.921875 -4.472656 0.921875 -6.828125 C 0.921875 -9.160156 1.414062 -10.921875 2.40625 -12.109375 C 3.40625 -13.304688 4.828125 -13.90625 6.671875 -13.90625 C 8.234375 -13.90625 9.503906 -13.378906 10.484375 -12.328125 L 10.484375 -18.671875 L 15.609375 -18.671875 L 15.609375 0 Z M 8.265625 -10.125 C 6.785156 -10.125 6.046875 -9.238281 6.046875 -7.46875 L 6.046875 -6.109375 C 6.046875 -4.347656 6.785156 -3.46875 8.265625 -3.46875 C 9.023438 -3.46875 9.59375 -3.734375 9.96875 -4.265625 C 10.34375 -4.804688 10.53125 -5.503906 10.53125 -6.359375 L 10.53125 -7.203125 C 10.53125 -8.066406 10.34375 -8.769531 9.96875 -9.3125 C 9.59375 -9.851562 9.023438 -10.125 8.265625 -10.125 Z M 8.265625 -10.125 "/></g></g></g><g fill="#000000" fill-opacity="1"><g transform="translate(19.11275, 30.374998)"><g/></g></g><g fill="#000000" fill-opacity="1"><g transform="translate(25.042404, 30.374998)"><g><path d="M 8.265625 -13.90625 C 10.335938 -13.90625 12.023438 -13.554688 13.328125 -12.859375 C 14.640625 -12.160156 15.296875 -11.03125 15.296875 -9.46875 L 15.296875 -4.171875 C 15.296875 -3.878906 15.363281 -3.640625 15.5 -3.453125 C 15.632812 -3.265625 15.84375 -3.171875 16.125 -3.171875 L 17.046875 -3.171875 L 17.046875 -0.203125 C 16.992188 -0.171875 16.859375 -0.113281 16.640625 -0.03125 C 16.429688 0.0390625 16.128906 0.113281 15.734375 0.1875 C 15.335938 0.269531 14.882812 0.3125 14.375 0.3125 C 13.375 0.3125 12.550781 0.160156 11.90625 -0.140625 C 11.257812 -0.441406 10.816406 -0.859375 10.578125 -1.390625 C 9.929688 -0.878906 9.203125 -0.46875 8.390625 -0.15625 C 7.585938 0.15625 6.644531 0.3125 5.5625 0.3125 C 2.363281 0.3125 0.765625 -0.957031 0.765625 -3.5 C 0.765625 -4.820312 1.117188 -5.832031 1.828125 -6.53125 C 2.546875 -7.226562 3.570312 -7.703125 4.90625 -7.953125 C 6.25 -8.210938 8.003906 -8.34375 10.171875 -8.34375 L 10.171875 -9.015625 C 10.171875 -9.546875 9.984375 -9.945312 9.609375 -10.21875 C 9.242188 -10.5 8.769531 -10.640625 8.1875 -10.640625 C 7.65625 -10.640625 7.195312 -10.539062 6.8125 -10.34375 C 6.425781 -10.15625 6.234375 -9.859375 6.234375 -9.453125 L 6.234375 -9.34375 L 1.1875 -9.34375 C 1.164062 -9.425781 1.15625 -9.546875 1.15625 -9.703125 C 1.15625 -10.992188 1.769531 -12.015625 3 -12.765625 C 4.226562 -13.523438 5.984375 -13.90625 8.265625 -13.90625 Z M 10.171875 -5.921875 C 8.710938 -5.921875 7.632812 -5.757812 6.9375 -5.4375 C 6.238281 -5.125 5.890625 -4.703125 5.890625 -4.171875 C 5.890625 -3.316406 6.472656 -2.890625 7.640625 -2.890625 C 8.316406 -2.890625 8.90625 -3.066406 9.40625 -3.421875 C 9.914062 -3.785156 10.171875 -4.234375 10.171875 -4.765625 Z M 10.171875 -5.921875 "/></g></g></g><g clip-path="url(#cb96548fd7)"><g clip-path="url(#cfb498ba75)"><path fill="#000000" d="M 20.175781 20.175781 L 24.824219 20.175781 L 24.824219 24.824219 L 20.175781 24.824219 Z M 20.175781 20.175781 " fill-opacity="1" fill-rule="nonzero"/></g></g></svg>